<mxfile host="app.diagrams.net" modified="2021-11-10T05:53:53.427Z" agent="5.0 (Windows NT 10.0; Win64; x64) AppleWebKit/537.36 (KHTML, like Gecko) Chrome/95.0.4638.69 Safari/537.36 Edg/95.0.1020.44" etag="qaL082sRpVdOlD25YJPM" version="15.7.1" type="github">
  <diagram id="HasSQPemCs9GQpOlN9z0" name="Page-1">
    <mxGraphModel dx="813" dy="454" grid="1" gridSize="10" guides="1" tooltips="1" connect="1" arrows="1" fold="1" page="1" pageScale="1" pageWidth="827" pageHeight="1169" math="0" shadow="0">
      <root>
        <mxCell id="0" />
        <mxCell id="1" parent="0" />
        <mxCell id="zy2MzBVvxE0g1TaHPWqj-3" style="edgeStyle=orthogonalEdgeStyle;rounded=0;orthogonalLoop=1;jettySize=auto;html=1;exitX=1;exitY=0.5;exitDx=0;exitDy=0;entryX=0;entryY=0.5;entryDx=0;entryDy=0;" edge="1" parent="1" source="zy2MzBVvxE0g1TaHPWqj-1" target="zy2MzBVvxE0g1TaHPWqj-2">
          <mxGeometry relative="1" as="geometry" />
        </mxCell>
        <mxCell id="zy2MzBVvxE0g1TaHPWqj-1" value="道路监控摄像头" style="rounded=0;whiteSpace=wrap;html=1;" vertex="1" parent="1">
          <mxGeometry x="40" y="80" width="120" height="40" as="geometry" />
        </mxCell>
        <mxCell id="zy2MzBVvxE0g1TaHPWqj-2" value="视频" style="rounded=0;whiteSpace=wrap;html=1;" vertex="1" parent="1">
          <mxGeometry x="200" y="80" width="120" height="40" as="geometry" />
        </mxCell>
      </root>
    </mxGraphModel>
  </diagram>
</mxfile>
